# xmcd
# 
# Track frame offsets:
#     150
#     26220
#     34036
#     92892
#     101100
#     135452
#     172165
#     179713
#     218439
#     247131
#     260632
#     295438
#     327440
# 
# Disc length: 4549
# 
# Revision: 5
# Processed by: cddbd v1.5.2PL0 Copyright (c) Steve Scherf et al.
# Submitted via: fre:ac v1.0.31
# 
DISCID=cf11c30d
DTITLE=Marc-Uwe Kling - QualityLand - Dunkle Edition [CD2)
DYEAR=2017
DGENRE=Comedy
TTITLE0=201 Kapitel 7: QualityCare
TTITLE1=202 Nachrichten: Frau aus der Provence bringt hundertstes Baby zur Welt
TTITLE2=203 Kapitel 8: Kalliope 7.3
TTITLE3=204 QualityLand Reiseführer: Maschinenstürmer
TTITLE4=205 Kapitel 9: Das Moravec'sche Paradox
TTITLE5=206 Kapitel 10: Im Keller
TTITLE6=207 Nachrichten: Familie erhält Kampfroboter statt Staubsauger
TTITLE7=208 Kapitel 11: Vorstellungsgespräch
TTITLE8=209 Kapitel 12: Kleiner Helfer
TTITLE9=210 Werbung: Bücher für dich!
TTITLE10=211 Kapitel 13: Aszendierende okulogenitale Chlamydieninfektion
TTITLE11=212 Kapitel 14: Geheime Kräfte
TTITLE12=213 Nachrichten: Präsidentin verurteilt Drohnenangriff als unmenschlich
EXTD=
EXTT0=
EXTT1=
EXTT2=
EXTT3=
EXTT4=
EXTT5=
EXTT6=
EXTT7=
EXTT8=
EXTT9=
EXTT10=
EXTT11=
EXTT12=
PLAYORDER=
